<?xml version="1.0" encoding="UTF-8" standalone="no"?>
<svg
   xmlns:dc="http://purl.org/dc/elements/1.1/"
   xmlns:cc="http://creativecommons.org/ns#"
   xmlns:rdf="http://www.w3.org/1999/02/22-rdf-syntax-ns#"
   xmlns:svg="http://www.w3.org/2000/svg"
   xmlns="http://www.w3.org/2000/svg"
   id="svg4596"
   version="1.1"
   viewBox="0 0 9 9"
   height="9"
   width="9">
  <defs
     id="defs4590" />
  <metadata
     id="metadata4593">
    <rdf:RDF>
      <cc:Work
         rdf:about="">
        <dc:format>image/svg+xml</dc:format>
        <dc:type
           rdf:resource="http://purl.org/dc/dcmitype/StillImage" />
        <dc:title />
      </cc:Work>
    </rdf:RDF>
  </metadata>
  <g
     id="layer1">
    <path
       style="stroke-linejoin:miter;stroke-opacity:1;fill-opacity:1;stroke:none;stroke-linecap:butt;stroke-width:0;fill:#4b392c"
       d="M3 2C3 2 2 3 2 3C2 3 2 6 2 6C2 6 1 7 1 7C1 7 3 7 3 7C3 7 6 7 6 7C6 7 7 6 7 6C7 6 3 6 3 6C3 6 3 2 3 2"
       id="path4602" />
    <path
       style="stroke-linejoin:miter;stroke-opacity:1;fill-opacity:1;stroke:none;stroke-linecap:butt;stroke-width:0;fill:#de8b4d"
       d="M3 2C3 2 7 2 7 2C7 2 7 6 7 6C7 6 3 6 3 6C3 6 3 2 3 2"
       id="path5147" />
  </g>
</svg>
